<svg id="Layer_1" data-name="Layer 1" xmlns="http://www.w3.org/2000/svg" xmlns:xlink="http://www.w3.org/1999/xlink" viewBox="0 0 400.88 117.38"><defs><style>.cls-1{fill:none;stroke:#212120;stroke-linecap:round;stroke-miterlimit:10;stroke-width:0.24px;stroke-dasharray:3.26;}.cls-2{fill:url(#linear-gradient);}.cls-3{fill:url(#linear-gradient-2);}.cls-4{fill:url(#linear-gradient-3);}.cls-5{fill:url(#linear-gradient-4);}.cls-6{fill:url(#linear-gradient-5);}.cls-7{fill:url(#linear-gradient-6);}.cls-8{fill:#e81c3d;}.cls-9{fill:#ffcc04;}.cls-10{fill:#f48220;}.cls-11{fill:#606464;}.cls-12{fill:#e6203e;}</style><linearGradient id="linear-gradient" x1="-12060.63" y1="52.37" x2="-12085.86" y2="52.37" gradientTransform="matrix(-1, 0, 0, 1, -12033.95, 0)" gradientUnits="userSpaceOnUse"><stop offset="0" stop-color="#600f40"/><stop offset="0.25" stop-color="#9c1c26"/><stop offset="0.75" stop-color="#e46626"/><stop offset="1" stop-color="#f68a25"/></linearGradient><linearGradient id="linear-gradient-2" x1="-12068.26" y1="57.16" x2="-12087.47" y2="57.16" xlink:href="#linear-gradient"/><linearGradient id="linear-gradient-3" x1="-12079.32" y1="58" x2="-12089.59" y2="58" xlink:href="#linear-gradient"/><linearGradient id="linear-gradient-4" x1="-12079.42" y1="46.46" x2="-12104.64" y2="46.46" gradientTransform="matrix(-1, 0, 0, 1, -12033.95, 0)" gradientUnits="userSpaceOnUse"><stop offset="0.01" stop-color="#f68a25"/><stop offset="0.25" stop-color="#e46626"/><stop offset="0.75" stop-color="#9c1c26"/><stop offset="1" stop-color="#600f40"/></linearGradient><linearGradient id="linear-gradient-5" x1="-12077.8" y1="41.67" x2="-12097.01" y2="41.67" xlink:href="#linear-gradient-4"/><linearGradient id="linear-gradient-6" x1="-12075.69" y1="40.83" x2="-12085.95" y2="40.83" xlink:href="#linear-gradient-4"/></defs><line class="cls-1" x1="0.12" y1="117.26" x2="0.12" y2="0.12"/><path class="cls-2" d="M51.91,50.6c-.55.39-.66,1.14-1.06,1.68-2.25,3.07-6.2,2.09-9.31,1.2-4.64-1.33-9-3.52-13.71-4.83-.3,0-1,4.5-1.14,5.14,4.73.27,9.33,1.64,14,2.11S50.76,56.42,51.91,50.6Z"/><path class="cls-3" d="M53,49.35c-.32,0-.18.4-.16.6.44,4.57-2.83,5.82-6.55,7.12-3.91,1.35-8.07,2.08-11.92,3.64C34.07,61.1,36,64.26,36,65c3.45-2,7.21-3.52,10.7-5.47C50.61,57.34,55.11,54.57,53,49.35Z"/><path class="cls-4" d="M49.08,68c1.35-3.67,3.62-6.94,5.15-10.53,1.16-2.71,2.45-6.2.07-8.65-.25-.25-1.07-1-1.33-.79,3.14,3,1.06,6.15-.92,9-.82,1.2-6.67,8.35-6.68,8.91,0,.33,1.64,1.17,2,1.36S48.85,68.15,49.08,68Z"/><path class="cls-5" d="M45.47,48.24c.55-.4.66-1.14,1.06-1.69,2.25-3.07,6.19-2.09,9.3-1.2,4.65,1.33,9.06,3.52,13.72,4.83.3,0,1-4.5,1.14-5.14-4.73-.26-9.34-1.64-14-2.1S46.62,42.42,45.47,48.24Z"/><path class="cls-6" d="M44.41,49.48c.31,0,.17-.4.15-.6-.44-4.56,2.83-5.82,6.56-7.11C55,40.41,59.18,39.68,63,38.13c.28-.4-1.64-3.55-1.69-4.27-3.46,2-7.21,3.53-10.7,5.47C46.77,41.49,42.26,44.26,44.41,49.48Z"/><path class="cls-7" d="M48.3,30.85c-1.35,3.66-3.62,6.94-5.16,10.52C42,44.08,40.7,47.57,43.08,50c.25.26,1.07,1,1.33.79-3.15-3-1.06-6.14.91-9,.83-1.2,6.68-8.35,6.68-8.91,0-.32-1.63-1.16-2-1.36S48.52,30.69,48.3,30.85Z"/><path class="cls-8" d="M48.69,80.49a31.24,31.24,0,0,1-22-53.28A31.14,31.14,0,0,1,70.66,71.35,30.82,30.82,0,0,1,48.69,80.49Zm0-60.55A29.34,29.34,0,1,0,77.9,49.28,29.3,29.3,0,0,0,48.69,19.94Z"/><path class="cls-9" d="M48.69,82.36A33,33,0,0,1,15.75,49.28h1.86a31.08,31.08,0,1,0,62.15,0h1.87A32.95,32.95,0,0,1,48.69,82.36Z"/><path class="cls-10" d="M81.63,49.28h-.69A32.06,32.06,0,0,0,19.31,36.76a32.08,32.08,0,0,0-2.88,12.52h-.68a32.89,32.89,0,0,1,2.93-12.79A32.94,32.94,0,0,1,36.11,19,32.64,32.64,0,0,1,72,26a32.92,32.92,0,0,1,9.6,23.25Z"/><path class="cls-10" d="M106.15,81.73a5.4,5.4,0,0,1-2.38.54,5.5,5.5,0,0,1,0-11,5.55,5.55,0,0,1,3.94,1.66l-1.5,1.71A3.25,3.25,0,1,0,103.76,80a3.28,3.28,0,0,0,2.38-1V78h-2V75.76h4.26v5.75h-1.79Z"/><path class="cls-10" d="M119.38,71.5h2.25v8.3h4.49v2.25h-6.74Z"/><path class="cls-10" d="M141.47,71.27A5.5,5.5,0,1,1,136,76.78,5.51,5.51,0,0,1,141.47,71.27Zm0,8.76a3.26,3.26,0,1,0-3.25-3.25A3.26,3.26,0,0,0,141.46,80Z"/><path class="cls-10" d="M157.73,71.5h4.61a3.2,3.2,0,0,1,3.26,3.11,3,3,0,0,1-.56,1.72,3.6,3.6,0,0,1,1,2.47,3.26,3.26,0,0,1-3.26,3.25h-5.06ZM160,73.74v1.72h2.37a.93.93,0,0,0,1-.85.94.94,0,0,0-1-.87Zm2.82,4H160V79.8h2.82a1,1,0,0,0,1-1A1.07,1.07,0,0,0,162.79,77.71Z"/><path class="cls-10" d="M179.07,71.5h2.62l3.69,10.55H183l-.77-2.25h-3.66l-.77,2.25h-2.38Zm.27,6.06h2.08l-1-3Z"/><path class="cls-10" d="M195.55,71.5h2.24v8.3h4.49v2.25h-6.73Z"/><path class="cls-10" d="M228.67,71.5h2.62L235,82.05h-2.41l-.78-2.25h-3.65l-.78,2.25H225Zm.27,6.06H231l-1-3Z"/><path class="cls-10" d="M245.14,71.5h7.19v2.24h-4.94v1.8h4.71v2.24h-4.71v2h5.16v2.25h-7.41Z"/><path class="cls-10" d="M266.83,78h-1v4h-2.25V71.5h4.61a3.25,3.25,0,0,1,1.11,6.31l2.3,4.24H269Zm-1-4.27v2h2.36a1,1,0,0,0,1-1,1,1,0,0,0-1-1Z"/><path class="cls-10" d="M287.33,71.27a5.5,5.5,0,1,1-5.49,5.51A5.51,5.51,0,0,1,287.33,71.27Zm0,8.76a3.26,3.26,0,1,0-3.25-3.25A3.26,3.26,0,0,0,287.32,80Z"/><path class="cls-10" d="M304.83,79.49a2.46,2.46,0,0,0,1.51.52c.88,0,1.53-.4,1.53-1a.89.89,0,0,0-.65-.88l-1.87-.54a3,3,0,0,1-2.11-3,3.35,3.35,0,0,1,3.51-3.29,3.9,3.9,0,0,1,2.87,1.21L307.88,74a1.65,1.65,0,0,0-1.15-.42,1.11,1.11,0,0,0-1.24,1.06.85.85,0,0,0,.64.87L308,76a3,3,0,0,1,2.11,3,3.46,3.46,0,0,1-3.73,3.27,4.45,4.45,0,0,1-3.35-1.38Z"/><path class="cls-10" d="M321.19,71.5h4.61a3.26,3.26,0,1,1,0,6.51h-2.37v4h-2.24Zm2.24,2.24v2h2.37a1,1,0,0,0,1-1,1,1,0,0,0-1-1Z"/><path class="cls-10" d="M341.15,71.5h2.62l3.7,10.55h-2.41l-.78-2.25h-3.65l-.78,2.25h-2.38Zm.27,6.06h2.08l-1-3Z"/><path class="cls-10" d="M364.57,74.13a3.2,3.2,0,0,0-1.91-.61,3.26,3.26,0,0,0,0,6.51,3.22,3.22,0,0,0,2.15-.81l1.87,1.32a5.51,5.51,0,1,1-.33-7.85Z"/><path class="cls-10" d="M376.89,71.5h7.19v2.24h-4.94v1.8h4.71v2.24h-4.71v2h5.16v2.25h-7.41Z"/><path class="cls-10" d="M107.79,49.93a4.22,4.22,0,0,0,4.34,3.89,4.32,4.32,0,0,0,4.41-4.35V16.39h9.73V49.47a14.12,14.12,0,0,1-27.95,2.79Z"/><path class="cls-10" d="M151.69,37.93l22.9,24.19H161l-15.95-17v17h-9.73V16.39h9.73V30.86L159,16.39h13.36Z"/><path class="cls-10" d="M197.48,16.39h13.88l11.87,32.82,12-32.82H249V62.12h-9.73V33.58L228.94,62.12H217.59L207.21,33.78V62.12h-9.73Z"/><path class="cls-10" d="M270.12,16.39h11.35l16,45.73H287.05l-3.38-9.73H267.85l-3.37,9.73H254.16Zm1.17,26.27h9l-4.47-13Z"/><path class="cls-10" d="M302.48,16.39h9.73V62.12h-9.73Z"/><path class="cls-10" d="M331.41,27V62.12h-9.73V16.39H336.4l18.35,33.92V16.39h9.73V62.12h-14Z"/><path class="cls-10" d="M374.53,16.39h9.73V62.12h-9.73Z"/><path class="cls-11" d="M150,91.83l-3.25,9.32h2.11l.68-2h3.23l.68,2h2.13l-3.26-9.32Zm.24,5.35.93-2.65.91,2.65Z"/><path class="cls-11" d="M213.67,97.58h1.78v.88a2.88,2.88,0,1,1,.07-3.86l1.32-1.5a4.85,4.85,0,1,0-1.38,7.77l.39-.2h1.58V95.6h-3.76Z"/><path class="cls-11" d="M226.8,94.71a2.88,2.88,0,0,0-2.88-2.88h-4.07v9.32h2V97.58h.89l1.94,3.57h2.27l-2-3.74A2.87,2.87,0,0,0,226.8,94.71Zm-2.88.89h-2.09V93.81h2.09a.9.9,0,1,1,0,1.79Z"/><path class="cls-11" d="M233.53,91.63a4.86,4.86,0,1,0,4.86,4.86A4.85,4.85,0,0,0,233.53,91.63Zm0,7.73a2.88,2.88,0,1,1,2.88-2.87A2.86,2.86,0,0,1,233.51,99.36Z"/><path class="cls-11" d="M246.53,97.38a2,2,0,0,1-4,0V91.83h-2v5.55a4,4,0,0,0,7.93,0V91.83h-2Z"/><path class="cls-11" d="M255.1,91.83H251v9.32h2V97.58h2.08a2.88,2.88,0,1,0,0-5.75Zm0,3.77H253V93.81h2.08a.9.9,0,1,1,0,1.79Z"/><path class="cls-11" d="M269,99.36a2.88,2.88,0,0,1,0-5.75,2.82,2.82,0,0,1,1.69.55l1.57-1.27a4.85,4.85,0,1,0-3.25,8.45,4.87,4.87,0,0,0,3.55-1.53l-1.66-1.16A2.82,2.82,0,0,1,269,99.36Z"/><path class="cls-11" d="M278.76,91.63a4.86,4.86,0,1,0,4.86,4.86A4.85,4.85,0,0,0,278.76,91.63Zm0,7.73a2.88,2.88,0,1,1,2.88-2.87A2.87,2.87,0,0,1,278.74,99.36Z"/><polygon class="cls-11" points="291.06 98.52 288.64 91.83 285.81 91.83 285.81 101.15 287.79 101.15 287.79 95.37 289.91 101.15 292.22 101.15 294.33 95.33 294.33 101.15 296.32 101.15 296.32 91.83 293.5 91.83 291.06 98.52"/><path class="cls-11" d="M303,91.83h-4.07v9.32h2V97.58H303a2.88,2.88,0,1,0,0-5.75Zm0,3.77h-2.08V93.81H303a.9.9,0,1,1,0,1.79Z"/><path class="cls-11" d="M309.28,91.83,306,101.15h2.1l.69-2H312l.69,2h2.12l-3.26-9.32Zm.24,5.35.92-2.65.91,2.65Z"/><polygon class="cls-11" points="323.27 98.74 319.53 91.83 316.53 91.83 316.53 101.15 318.51 101.15 318.51 93.98 322.4 101.15 325.25 101.15 325.25 91.83 323.27 91.83 323.27 98.74"/><polygon class="cls-11" points="333.38 91.83 331.23 95.37 329.08 91.83 326.77 91.83 330.34 97.7 330.34 101.15 332.32 101.15 332.32 97.37 335.69 91.83 333.38 91.83"/><path class="cls-12" d="M180.72,93.29l1-1a.7.7,0,0,1,1.14,0c.25.26.46.56.73.89.34-.3.69-.58,1-.88.6-.54,1-.51,1.55.09a2.72,2.72,0,0,1,.65,2.25c-.12,1.14-.22,2.28-.32,3.42,0,.37-.07.73-.09,1.1,0,.61,0,.61.59.93l-2.37,1c.05-.65.08-1.18.12-1.71.14-1.61.29-3.22.41-4.83a2.33,2.33,0,0,0-.16-.94.57.57,0,0,0-1-.25,1.29,1.29,0,0,0-.53,1.06c0,1.75,0,3.49,0,5.24a.66.66,0,0,1-.36.64c-.36.2-.7.44-1.12.7,0-.28,0-.49,0-.71,0-2,0-3.91,0-5.87a2.36,2.36,0,0,0-.16-.78c-.12-.3-.37-.33-.63-.16a1.19,1.19,0,0,0-.49,1.07c0,1.75,0,3.5,0,5.24a.62.62,0,0,1-.36.64c-.37.19-.72.41-1.17.68v-.59q0-3,0-6c0-.8-.15-1-.93-1.19a.31.31,0,0,1-.18-.13.3.3,0,0,1,.1-.21c.55-.29,1.1-.58,1.66-.85a.45.45,0,0,1,.37.16C180.34,92.65,180.51,93,180.72,93.29Z"/><path class="cls-12" d="M161.23,101V94c0-.66-.12-.8-.77-.87l-.24,0s0-.09,0-.1a19.39,19.39,0,0,1,1.78-1.1c.33-.16.59.19.77.47s.14.3.23.5c.43-.28.85-.54,1.24-.83a.65.65,0,0,1,.95.06,4.16,4.16,0,0,1,1.13,3.58,1.32,1.32,0,0,1-.57.74c-1.14.81-1.17.62-.47,2a14.53,14.53,0,0,0,1.17,1.76c.18.24.16.36-.08.54-.84.61-1.24.54-1.84-.29a20.75,20.75,0,0,1-1.2-2l-.2-.39L163,98a2.32,2.32,0,0,0-.05.38c0,.55,0,1.1,0,1.66a.48.48,0,0,1-.36.53C162.16,100.7,161.74,100.86,161.23,101ZM163,95.26a10.07,10.07,0,0,0,0,1.1c0,.14.16.36.28.38,1,.2,1.31,0,1.36-1.07,0-.07,0-.14,0-.21a2.69,2.69,0,0,0-.57-2c-.31-.35-.46-.32-.77,0C162.87,94,163,94.65,163,95.26Z"/><path class="cls-12" d="M198.67,90.6a4.79,4.79,0,0,1,2.14-.9l-.34.55c.3.27.61.58.93.85.64.55,1.33,1.06,1.94,1.65a2.38,2.38,0,0,1,.71,1.84c0,1.52,0,3,0,4.55a1.25,1.25,0,0,1-.86,1.32c-.58.22-1.16.44-1.75.62a1.18,1.18,0,0,1-1.47-.54,3.56,3.56,0,0,1-.58-2.26,12.66,12.66,0,0,1,.32-2.21,2.75,2.75,0,0,1,1.52-1.78c.95-.52.94-.56.12-1.25l-2.25-1.94A4.8,4.8,0,0,1,198.67,90.6Zm3.71,6.61h.07c0-.7,0-1.41,0-2.12a1.5,1.5,0,0,0-.23-.5c-.16.09-.37.14-.48.28a1.4,1.4,0,0,0-.32.63c-.16.92-.33,1.84-.4,2.76a4,4,0,0,0,.23,1.49.85.85,0,0,0,.62.45.54.54,0,0,0,.52-.61Z"/><path class="cls-12" d="M174.92,101.19a3,3,0,0,1-.38-.58c-.78-2.18-1.56-4.36-2.31-6.54a.64.64,0,0,0-.72-.51c-.15,0-.31-.12-.47-.18.11-.12.19-.28.32-.35.5-.27,1-.5,1.52-.77.32-.18.48-.14.61.24.61,1.84,1.25,3.66,1.88,5.49a1.11,1.11,0,0,0,.3.5c.1-.42.2-.83.29-1.25l1-4.43c.1-.48.47-.74,1.09-.73,0,.24-.06.47-.12.69q-1.3,5-2.63,10a1.81,1.81,0,0,1-3.62-.19.5.5,0,0,1,.2-.35,10.46,10.46,0,0,1,1.25-.49c.07,0,.24.1.29.19s.09.41.2.55.39.45.55.43a1,1,0,0,0,.61-.48,7.84,7.84,0,0,0,.31-1.27Z"/><path class="cls-12" d="M195.26,93.42c.38-.36.75-.68,1.1-1,.67-.67,1.08-.64,1.68.12a2.3,2.3,0,0,1,.51,1.86c-.12.86-.14,1.74-.2,2.62,0,.65-.12,1.29-.15,1.94,0,.38-.23.86.44,1v.1l-1.95,1.13-.12-.11c0-.63.07-1.27.12-1.9l.24-2.87c.05-.56.11-1.13.14-1.69a3.05,3.05,0,0,0-.06-.8c-.13-.57-.56-.71-1-.34a2,2,0,0,0-.79,1.65c0,1.59,0,3.18,0,4.77a.72.72,0,0,1-.4.72c-.25.13-.48.3-.71.45s-.42.13-.41-.22,0-.8,0-1.19V94.44c0-.83-.15-1-1-1a1.15,1.15,0,0,1-.29-.11c.06-.1.1-.25.19-.3.51-.26,1-.52,1.56-.74a.54.54,0,0,1,.75.37C195,92.89,195.15,93.16,195.26,93.42Z"/><path class="cls-12" d="M166.7,93.68c.43-.56.77-1,1.14-1.47a.48.48,0,0,1,.35-.14c.62,0,1.25,0,1.87,0,.29,0,.39.11.44.37.5,2.29,1,4.58,1.54,6.86a5.86,5.86,0,0,0,.55,1.17l-.94.55c-.26.16-.44.09-.6-.16s-.31-.39-.48-.61c-.07.1-.12.15-.16.2-.44.68-.7,1-1.89.55a2.93,2.93,0,0,1-1.94-3,1.36,1.36,0,0,1,.62-1.07c.61-.39,1.25-.76,1.89-1.12.32-.17.48-.35.34-.73a4.39,4.39,0,0,1-.2-.87.58.58,0,0,0-.68-.52C168,93.69,167.39,93.68,166.7,93.68Zm3.63,5.53c-.19-.9-.36-1.71-.55-2.5a.36.36,0,0,0-.26-.22,1.6,1.6,0,0,0-1.41,1.31,2.89,2.89,0,0,0,1.33,2.29.37.37,0,0,0,.37,0A9.47,9.47,0,0,0,170.33,99.21Z"/><path class="cls-12" d="M192.44,96.74c-.06.5-.13,1.22-.21,1.93a2.1,2.1,0,0,1-1.27,1.77c-.41.2-.8.43-1.21.6a1.26,1.26,0,0,1-1.63-.59,4.46,4.46,0,0,1-.61-2.14,11,11,0,0,1,.3-3.7,3.78,3.78,0,0,1,2.42-2.44,1,1,0,0,1,1,.17,2.69,2.69,0,0,1,1,2C192.36,95.07,192.38,95.8,192.44,96.74ZM191,96.63c-.16-.93-.3-1.91-.51-2.87-.06-.24-.34-.44-.51-.66-.18.22-.45.42-.51.67a17.45,17.45,0,0,0-.38,2.37,8.8,8.8,0,0,0,.33,3.31c.09.3.33.72.55.75.42.06.52-.44.58-.76C190.77,98.54,190.88,97.61,191,96.63Z"/></svg>