<svg id="Layer_1" data-name="Layer 1" xmlns="http://www.w3.org/2000/svg" xmlns:xlink="http://www.w3.org/1999/xlink" viewBox="0 0 400.7 117.45"><defs><style>.cls-1{fill:url(#linear-gradient);}.cls-2{fill:url(#linear-gradient-2);}.cls-3{fill:url(#linear-gradient-3);}.cls-4{fill:url(#linear-gradient-4);}.cls-5{fill:url(#linear-gradient-5);}.cls-6{fill:url(#linear-gradient-6);}.cls-7{fill:#e81c3d;}.cls-8{fill:#ffcc04;}.cls-9{fill:#f48220;}.cls-10{fill:#606464;}.cls-11{fill:#e6203e;fill-rule:evenodd;}</style><linearGradient id="linear-gradient" x1="-15449.1" y1="52.41" x2="-15474.33" y2="52.41" gradientTransform="matrix(-1, 0, 0, 1, -15422.51, 0)" gradientUnits="userSpaceOnUse"><stop offset="0" stop-color="#600f40"/><stop offset="0.25" stop-color="#9c1c26"/><stop offset="0.75" stop-color="#e46626"/><stop offset="1" stop-color="#f68a25"/></linearGradient><linearGradient id="linear-gradient-2" x1="-15456.73" y1="57.2" x2="-15475.94" y2="57.2" xlink:href="#linear-gradient"/><linearGradient id="linear-gradient-3" x1="-15467.79" y1="58.04" x2="-15478.06" y2="58.04" xlink:href="#linear-gradient"/><linearGradient id="linear-gradient-4" x1="-15467.89" y1="46.5" x2="-15493.11" y2="46.5" gradientTransform="matrix(-1, 0, 0, 1, -15422.51, 0)" gradientUnits="userSpaceOnUse"><stop offset="0.01" stop-color="#f68a25"/><stop offset="0.25" stop-color="#e46626"/><stop offset="0.75" stop-color="#9c1c26"/><stop offset="1" stop-color="#600f40"/></linearGradient><linearGradient id="linear-gradient-5" x1="-15466.27" y1="41.71" x2="-15485.48" y2="41.71" xlink:href="#linear-gradient-4"/><linearGradient id="linear-gradient-6" x1="-15464.16" y1="40.87" x2="-15474.42" y2="40.87" xlink:href="#linear-gradient-4"/></defs><path class="cls-1" d="M51.82,50.63c-.55.4-.66,1.14-1.06,1.69-2.25,3.07-6.19,2.09-9.3,1.2C36.81,52.19,32.4,50,27.74,48.68c-.3,0-1,4.51-1.14,5.14,4.73.27,9.33,1.65,14,2.11S50.67,56.45,51.82,50.63Z"/><path class="cls-2" d="M52.88,49.39c-.32,0-.17.4-.16.6.44,4.56-2.83,5.82-6.55,7.11-3.91,1.36-8.07,2.09-11.92,3.64C34,61.14,35.9,64.29,36,65c3.46-2,7.21-3.53,10.7-5.47C50.52,57.38,55,54.61,52.88,49.39Z"/><path class="cls-3" d="M49,68c1.35-3.66,3.62-6.94,5.16-10.52,1.15-2.71,2.44-6.2.06-8.65-.25-.26-1.07-1-1.33-.79,3.15,3,1.06,6.14-.91,9-.83,1.2-6.68,8.35-6.69,8.91,0,.32,1.64,1.16,2,1.36S48.76,68.18,49,68Z"/><path class="cls-4" d="M45.38,48.27c.55-.39.66-1.14,1.06-1.68,2.25-3.07,6.19-2.09,9.3-1.2,4.65,1.33,9.06,3.52,13.72,4.83.3,0,1-4.5,1.14-5.14-4.73-.27-9.34-1.64-14-2.11S46.53,42.45,45.38,48.27Z"/><path class="cls-5" d="M44.32,49.52c.32,0,.17-.4.15-.6C44,44.35,47.31,43.09,51,41.8c3.91-1.35,8.07-2.08,11.92-3.64.27-.39-1.65-3.55-1.7-4.26-3.46,2-7.21,3.52-10.7,5.47C46.68,41.53,42.17,44.3,44.32,49.52Z"/><path class="cls-6" d="M48.21,30.88c-1.35,3.67-3.62,6.94-5.16,10.53-1.15,2.71-2.44,6.2-.06,8.65.25.25,1.07,1,1.33.79-3.15-3-1.06-6.15.91-9,.83-1.2,6.68-8.35,6.68-8.91,0-.33-1.63-1.17-2-1.36S48.44,30.72,48.21,30.88Z"/><path class="cls-7" d="M48.6,80.52A31.14,31.14,0,0,1,17.52,49.31,31.08,31.08,0,1,1,70.57,71.38,30.76,30.76,0,0,1,48.6,80.52ZM48.6,20A29.34,29.34,0,1,0,77.81,49.31,29.3,29.3,0,0,0,48.6,20Z"/><path class="cls-8" d="M48.6,82.39a33,33,0,0,1-30.35-20.2,33,33,0,0,1-2.59-12.88h1.87a31.07,31.07,0,1,0,62.14,0h1.87A33.11,33.11,0,0,1,61.42,79.79,32.5,32.5,0,0,1,48.6,82.39Z"/><path class="cls-9" d="M81.54,49.31h-.68A32.07,32.07,0,0,0,19.22,36.79a32.23,32.23,0,0,0-2.87,12.52h-.69a32.8,32.8,0,0,1,2.93-12.78A32.94,32.94,0,0,1,36,19,32.67,32.67,0,0,1,72,26.07a32.85,32.85,0,0,1,9.59,23.24Z"/><path class="cls-9" d="M106.06,81.77a5.5,5.5,0,1,1,1.56-8.8l-1.5,1.7a3.24,3.24,0,1,0-.07,4.37V78h-2V75.8h4.26v5.74H106.5Z"/><path class="cls-9" d="M119.29,71.53h2.25v8.31H126v2.24h-6.74Z"/><path class="cls-9" d="M141.38,71.31a5.5,5.5,0,1,1-5.49,5.5A5.51,5.51,0,0,1,141.38,71.31Zm0,8.75a3.26,3.26,0,1,0-3.25-3.25A3.25,3.25,0,0,0,141.37,80.06Z"/><path class="cls-9" d="M157.64,71.53h4.61a3.21,3.21,0,0,1,3.26,3.11,3,3,0,0,1-.55,1.73,3.6,3.6,0,0,1,1,2.47,3.26,3.26,0,0,1-3.26,3.24h-5.06Zm2.24,2.25V75.5h2.37a.87.87,0,1,0,0-1.72Zm2.82,4h-2.82v2.1h2.82a1,1,0,0,0,1-1A1.07,1.07,0,0,0,162.7,77.74Z"/><path class="cls-9" d="M179,71.53h2.62l3.7,10.55h-2.41l-.78-2.24h-3.65l-.78,2.24H175.3Zm.27,6.06h2.08l-1-3Z"/><path class="cls-9" d="M195.46,71.53h2.24v8.31h4.49v2.24h-6.73Z"/><path class="cls-9" d="M228.58,71.53h2.62l3.69,10.55h-2.41l-.77-2.24h-3.66l-.77,2.24H224.9Zm.27,6.06h2.08l-1-3Z"/><path class="cls-9" d="M245.06,71.53h7.18v2.25H247.3v1.79H252v2.25H247.3v2h5.16v2.24h-7.4Z"/><path class="cls-9" d="M266.74,78h-1v4h-2.25V71.53h4.61a3.25,3.25,0,0,1,1.11,6.32l2.3,4.23h-2.57Zm-1-4.26v2h2.36a1,1,0,1,0,0-2Z"/><path class="cls-9" d="M287.24,71.31a5.5,5.5,0,1,1-5.49,5.5A5.51,5.51,0,0,1,287.24,71.31Zm0,8.75A3.26,3.26,0,1,0,284,76.81,3.25,3.25,0,0,0,287.23,80.06Z"/><path class="cls-9" d="M304.74,79.52a2.4,2.4,0,0,0,1.51.53c.89,0,1.53-.41,1.53-1a.9.9,0,0,0-.64-.88l-1.88-.54a3,3,0,0,1-2.11-3,3.35,3.35,0,0,1,3.51-3.29,3.9,3.9,0,0,1,2.87,1.21L307.79,74a1.59,1.59,0,0,0-1.15-.42,1.11,1.11,0,0,0-1.24,1.06.87.87,0,0,0,.64.87l1.89.54A3,3,0,0,1,310,79a3.46,3.46,0,0,1-3.73,3.26A4.48,4.48,0,0,1,303,80.92Z"/><path class="cls-9" d="M321.1,71.53h4.61a3.26,3.26,0,1,1,0,6.51h-2.37v4H321.1Zm2.24,2.25v2h2.37a1,1,0,1,0,0-2Z"/><path class="cls-9" d="M341.06,71.53h2.62l3.7,10.55H345l-.78-2.24h-3.65l-.78,2.24h-2.38Zm.27,6.06h2.08l-1-3Z"/><path class="cls-9" d="M364.49,74.17a3.26,3.26,0,1,0-1.92,5.89,3.2,3.2,0,0,0,2.15-.81l1.88,1.32a5.5,5.5,0,1,1-.33-7.84Z"/><path class="cls-9" d="M376.8,71.53H384v2.25h-4.94v1.79h4.71v2.25h-4.71v2h5.16v2.24H376.8Z"/><path class="cls-9" d="M107.7,50A4.22,4.22,0,0,0,112,53.85a4.31,4.31,0,0,0,4.41-4.34V16.43h9.73V49.51A14.12,14.12,0,0,1,98.23,52.3Z"/><path class="cls-9" d="M151.61,38,174.5,62.15H161l-16-17v17h-9.73V16.43H145V30.89l13.88-14.46h13.36Z"/><path class="cls-9" d="M197.39,16.43h13.88l11.87,32.82,12-32.82H249V62.15h-9.73V33.62L228.85,62.15H217.5L207.12,33.81V62.15h-9.73Z"/><path class="cls-9" d="M270,16.43h11.35l16,45.72H287l-3.38-9.73H267.76l-3.37,9.73H254.08ZM271.2,42.7h9l-4.47-13Z"/><path class="cls-9" d="M302.39,16.43h9.73V62.15h-9.73Z"/><path class="cls-9" d="M331.32,27V62.15h-9.73V16.43h14.72l18.36,33.92V16.43h9.72V62.15h-14Z"/><path class="cls-9" d="M374.45,16.43h9.72V62.15h-9.72Z"/><path class="cls-10" d="M150,91.86l-3.25,9.32h2.1l.69-2h3.22l.69,2h2.13l-3.27-9.32Zm.24,5.36.92-2.66.91,2.66Z"/><path class="cls-10" d="M213.64,97.61h1.79v.89a3,3,0,0,1-2.11.9,2.88,2.88,0,1,1,2.17-4.76l1.32-1.51a4.86,4.86,0,1,0-1.37,7.77l.38-.19h1.59V95.63h-3.77Z"/><path class="cls-10" d="M226.78,94.75a2.9,2.9,0,0,0-2.88-2.89h-4.08v9.32h2V97.61h.88l1.95,3.57h2.27l-2-3.74A2.87,2.87,0,0,0,226.78,94.75Zm-2.88.88h-2.09V93.85h2.09a.88.88,0,0,1,.89.9A.87.87,0,0,1,223.9,95.63Z"/><path class="cls-10" d="M233.5,91.67a4.86,4.86,0,1,0,4.86,4.86A4.86,4.86,0,0,0,233.5,91.67Zm0,7.73a2.88,2.88,0,1,1,2.88-2.87A2.86,2.86,0,0,1,233.49,99.4Z"/><path class="cls-10" d="M246.5,97.41a2,2,0,1,1-4,0V91.86h-2v5.55a4,4,0,1,0,7.92,0V91.86h-2Z"/><path class="cls-10" d="M255.08,91.86H251v9.32h2V97.61h2.09a2.88,2.88,0,1,0,0-5.75Zm0,3.77H253V93.85h2.09a.89.89,0,0,1,.9.9A.88.88,0,0,1,255.08,95.63Z"/><path class="cls-10" d="M269,99.4a2.88,2.88,0,0,1,0-5.75,2.92,2.92,0,0,1,1.7.54l1.57-1.27a4.85,4.85,0,1,0-3.25,8.46,4.89,4.89,0,0,0,3.54-1.53l-1.65-1.17A2.86,2.86,0,0,1,269,99.4Z"/><path class="cls-10" d="M278.73,91.67a4.86,4.86,0,1,0,4.86,4.86A4.86,4.86,0,0,0,278.73,91.67Zm0,7.73a2.88,2.88,0,1,1,2.88-2.87A2.86,2.86,0,0,1,278.72,99.4Z"/><polygon class="cls-10" points="291.03 98.55 288.61 91.86 285.79 91.86 285.79 101.18 287.77 101.18 287.77 95.41 289.88 101.18 292.19 101.18 294.31 95.37 294.31 101.18 296.29 101.18 296.29 91.86 293.48 91.86 291.03 98.55"/><path class="cls-10" d="M303,91.86h-4.07v9.32h2V97.61H303a2.88,2.88,0,1,0,0-5.75Zm0,3.77H300.9V93.85H303a.89.89,0,0,1,.9.9A.88.88,0,0,1,303,95.63Z"/><path class="cls-10" d="M309.25,91.86,306,101.18h2.1l.69-2H312l.69,2h2.13l-3.27-9.32Zm.24,5.36.92-2.66.92,2.66Z"/><polygon class="cls-10" points="323.25 98.78 319.5 91.86 316.5 91.86 316.5 101.18 318.49 101.18 318.49 94.02 322.37 101.18 325.23 101.18 325.23 91.86 323.25 91.86 323.25 98.78"/><polygon class="cls-10" points="333.35 91.86 331.2 95.41 329.06 91.86 326.75 91.86 330.31 97.73 330.31 101.18 332.3 101.18 332.3 97.4 335.67 91.86 333.35 91.86"/><polygon class="cls-11" points="177.97 92.15 177.96 92.11 177.95 92.09 177.93 92.07 177.91 92.06 177.83 92.05 177.82 92.05 177.77 92.05 177.69 92.06 177.56 92.1 177.47 92.13 177.39 92.16 177.33 92.19 177.24 92.24 177.13 92.31 177.12 92.31 177.07 92.35 177.06 92.36 177.05 92.37 177.04 92.38 177.03 92.39 177.01 92.4 177 92.41 176.98 92.43 176.96 92.45 176.92 92.49 175.64 98.38 175.62 98.43 175.6 98.46 175.59 98.47 175.59 98.48 175.56 98.5 175.52 98.51 175.5 98.5 175.48 98.49 175.46 98.47 175.44 98.41 175.43 98.38 173.34 92.32 173.32 92.26 173.29 92.18 173.27 92.16 173.24 92.13 173.22 92.12 173.19 92.11 173.17 92.11 173.14 92.12 173.09 92.14 172.54 92.41 171.54 92.9 171.51 92.92 171.4 92.98 171.37 92.99 171.25 93.05 171.22 93.07 171.09 93.13 171.03 93.17 171 93.2 170.98 93.25 170.96 93.31 170.96 93.37 170.98 93.43 171 93.46 171.01 93.47 171.02 93.49 171.03 93.5 171.04 93.51 171.08 93.54 171.16 93.56 171.24 93.58 171.38 93.58 171.39 93.58 171.66 93.58 171.67 93.58 171.69 93.58 171.71 93.58 171.73 93.58 171.79 93.59 171.84 93.61 171.91 93.64 171.97 93.67 171.99 93.69 172 93.7 172.03 93.75 173.28 97.3 173.32 97.41 173.33 97.43 174.53 100.81 174.58 100.95 174.62 101 174.64 101.02 174.65 101.03 174.67 101.04 174.72 101.06 174.79 101.07 174.82 101.07 174.83 101.07 174.88 101.07 174.89 101.08 174.92 101.08 174.94 101.08 174.95 101.09 174.95 101.13 174.94 101.15 174.94 101.16 174.94 101.18 174.94 101.2 174.94 101.21 174.94 101.23 174.94 101.24 174.94 101.27 174.93 101.28 174.93 101.29 174.93 101.31 174.93 101.33 174.93 101.34 174.93 101.36 174.9 101.55 174.85 101.81 174.79 102.11 174.74 102.31 174.71 102.39 174.66 102.53 174.65 102.54 174.63 102.58 174.58 102.67 174.52 102.74 174.46 102.81 174.37 102.87 174.35 102.88 174.32 102.9 174.31 102.91 174.29 102.91 174.2 102.95 174.09 102.98 174.04 102.98 174.03 102.98 174.01 102.98 174 102.98 173.96 102.98 173.93 102.97 173.87 102.95 173.82 102.92 173.75 102.87 173.69 102.81 173.64 102.75 173.63 102.73 173.6 102.69 173.59 102.68 173.57 102.65 173.55 102.61 173.51 102.54 173.45 102.39 173.38 102.22 173.29 101.89 173.27 101.82 173.25 101.78 173.21 101.74 173.18 101.73 173.14 101.72 173.13 101.72 173.09 101.72 173.06 101.73 172.85 101.78 172.65 101.84 172.46 101.9 172.28 101.97 172.09 102.06 171.94 102.14 171.8 102.22 171.74 102.26 171.73 102.27 171.71 102.29 171.66 102.33 171.65 102.35 171.62 102.39 171.6 102.43 171.58 102.49 171.56 102.57 171.56 102.7 171.58 102.8 171.63 103.02 171.68 103.17 171.73 103.31 171.79 103.44 171.85 103.55 171.86 103.56 171.87 103.58 171.9 103.63 171.92 103.67 171.98 103.76 171.99 103.77 172 103.79 172.06 103.87 172.07 103.88 172.08 103.89 172.14 103.96 172.17 103.99 172.26 104.07 172.27 104.08 172.35 104.14 172.36 104.15 172.47 104.22 172.49 104.23 172.5 104.24 172.52 104.25 172.53 104.26 172.55 104.27 172.56 104.28 172.65 104.32 172.77 104.36 172.91 104.4 173.12 104.43 173.16 104.43 173.17 104.43 173.21 104.43 173.22 104.44 173.27 104.44 173.28 104.44 173.32 104.44 173.33 104.44 173.47 104.44 173.48 104.43 173.5 104.43 173.52 104.43 173.54 104.43 173.56 104.42 173.58 104.42 173.74 104.4 173.9 104.36 173.92 104.35 174.01 104.31 174.16 104.25 174.26 104.19 174.34 104.14 174.35 104.13 174.4 104.09 174.5 104.01 174.61 103.9 174.68 103.82 174.69 103.81 174.69 103.79 174.71 103.78 174.79 103.67 174.79 103.67 174.88 103.53 174.92 103.46 174.96 103.38 175.02 103.27 175.03 103.23 175.06 103.16 175.14 102.93 177.96 92.21 177.97 92.15"/><path class="cls-11" d="M191,100.36l.3-.18.14-.11h.05l.06-.06.05,0h0l0,0,.05-.05h0l.05-.06h0l0,0h0l.1-.17.08-.16.06-.16.06-.22.07-.29,0-.27.06-.35h0V98h0v-.1h0v0h0v0h0v0h0v0h0V97.6h0v0h0v-.18h0v0h0v-.08h0V97h0v-.51h0v-.13h0v-.09h0V96h0v-.24h0v0h0v0h0V95.6h0v-.16h0v0h0v0h0v-.09h0v0h0v-.08h0v0h0v0h0v0h0v-.08h0v0h0V94.7h0v0h0v0h0V94.5l0-.27v-.09l0-.19,0-.2,0-.16-.06-.17-.05-.13-.06-.12v0l0-.05,0-.08,0,0-.05-.08h0l0,0h0l0,0-.11-.13-.13-.14-.14-.11h0l-.05,0h0l-.06,0h0L191,92.2l-.09,0-.1,0-.13,0h-.3l-.11,0h-.08l-.14,0-.08,0h0l0,0,0,0h0l-.05,0,0,0h0l-.09.06-.05,0-.14.09-.46.29-.3.24h0l-.1.09,0,0v0l0,0v0l0,0-.1.12h0l-.08.1h0l-.06.1h0l-.11.18v0h0v0l0,0V94l-.05.08-.06.14-.06.15,0,.12-.06.18-.1.34-.07.33-.06.39h0v0h0v.05h0v.06h0v.07h0V96h0v.12h0v0h0v.08h0v0h0v.12h0v.06h0v.06h0v.06h0v.11h0v.13h0v1h0v.09h0v.09h0v.08h0v.08h0v0h0v0h0v0h0v0h0v0h0v0l0,.29,0,.16,0,.18,0,.19,0,.15.06.16.08.17.07.16,0,0,0,.07,0,0v0l.1.18v0h0l.08.13.06.07h0l.06.07.05,0,.06,0h0l.13.09.07,0,0,0,.12,0,.16.06.13,0h.23l.09,0,.09,0,.13,0,.11,0,.16-.06.2-.09.24-.12,0,0h0l0,0h0l.31-.18Zm-.31-1.72v0l-.07.33-.05.25-.07.23-.07.19-.07.17,0,0v0l0,0v0l-.06.08h0l0,0h0l0,0,0,0h0l-.06,0h-.12l-.06,0,0,0,0,0h0l0,0,0,0h0l0,0,0-.07h0v0l0,0v0l0-.09-.07-.16-.07-.21-.06-.24-.06-.26-.06-.31v-.2l0-.33v0h0v0h0v-.06h0v-.1h0v0h0v-.08h0v0h0v-.15h0v0h0v-.06h0v-.08h0v-.08h0v-.08h0v-.17h0v-.44h0v-.17h0v-.08h0V96.1h0v-.15h0v0h0v0h0v-.1h0v0h0v0h0v0h0v0h0v0h0v0h0v0h0v-.06h0v0h0v-.11l0-.31,0-.23.06-.32.06-.26.06-.21.07-.18.07-.18.08-.15.06-.08h0l0,0h0l0,0,0,0h0l.07,0H190l.06,0,.05,0,0,0h0l.05,0v0h0v0l0,0,.05.07v0l0,0,0,0v0l.09.21,0,0,0,.06,0,.13.06.23.06.26,0,.3V95l.05.37v0h0v.1h0v.1h0v0h0v.09h0v0h0v.15h0v0h0v.08h0v.08h0v.08h0v.12h0v.32h0V97h0v.3h0v.08h0v.16h0v0h0v.2h0v.12h0V98h0v.11l-.05.32v.16Z"/><polygon class="cls-11" points="195.48 93.9 195.49 93.89 195.58 93.77 195.59 93.75 195.6 93.74 195.62 93.72 195.63 93.71 195.65 93.69 195.66 93.67 195.68 93.65 195.69 93.64 195.7 93.64 195.78 93.55 195.88 93.47 195.89 93.45 196 93.38 196.1 93.33 196.17 93.3 196.25 93.27 196.34 93.25 196.44 93.25 196.49 93.26 196.55 93.28 196.57 93.29 196.59 93.3 196.65 93.34 196.71 93.38 196.75 93.42 196.83 93.53 196.85 93.58 196.87 93.6 196.91 93.7 196.92 93.74 196.94 93.81 196.98 94.07 196.98 94.1 196.98 94.11 196.98 94.14 196.99 94.15 196.99 94.19 196.99 94.21 196.99 94.33 196.99 94.34 196.99 94.37 196.98 94.39 196.98 94.41 196.98 94.43 196.98 94.46 196.98 94.47 196.98 94.5 196.97 94.51 196.97 94.54 196.97 94.56 196.97 94.59 196.97 94.6 196.97 94.63 196.96 94.64 196.96 94.67 196.96 94.69 196.96 94.72 196.96 94.73 196.96 94.76 196.95 94.78 196.95 94.81 196.95 94.82 196.95 94.85 196.95 94.86 196.95 94.89 196.94 94.91 196.94 94.93 196.94 94.95 196.94 94.98 196.94 95 196.94 95.03 196.93 95.04 196.93 95.07 196.93 95.08 196.93 95.11 196.92 95.12 196.92 95.15 196.92 95.17 196.92 95.2 196.92 95.21 196.92 95.24 196.91 95.26 196.91 95.28 196.91 95.3 196.91 95.33 196.91 95.34 196.91 95.37 196.91 95.39 196.91 95.42 196.9 95.43 196.9 95.46 196.9 95.47 196.9 95.5 196.89 95.52 196.89 95.55 196.89 95.56 196.89 95.59 196.89 95.6 196.89 95.63 196.88 95.65 196.88 95.68 196.88 95.69 196.88 95.72 196.88 95.73 196.88 95.77 196.87 95.78 196.87 95.81 196.87 95.82 196.87 95.85 196.87 95.86 196.87 95.9 196.86 95.91 196.86 95.94 196.86 95.95 196.86 95.98 196.86 96 196.86 96.02 196.85 96.04 196.85 96.07 196.85 96.08 196.85 96.11 196.84 96.13 196.84 96.16 196.84 96.17 196.84 96.2 196.84 96.22 196.84 96.25 196.83 96.26 196.83 96.29 196.83 96.3 196.83 96.33 196.83 96.35 196.83 96.37 196.82 96.39 196.82 96.42 196.82 96.43 196.82 96.46 196.82 96.48 196.82 96.5 196.81 96.52 196.81 96.55 196.81 96.56 196.81 96.59 196.81 96.61 196.81 96.64 196.8 96.65 196.8 96.68 196.8 96.69 196.8 96.72 196.8 96.74 196.8 96.77 196.79 96.78 196.79 96.81 196.79 96.82 196.79 96.85 196.79 96.87 196.79 96.9 196.78 96.91 196.78 96.94 196.78 96.95 196.78 96.98 196.78 97 196.78 97.03 196.77 97.04 196.77 97.07 196.77 97.09 196.77 97.12 196.77 97.13 196.77 97.16 196.76 97.17 196.76 97.2 196.76 97.22 196.76 97.25 196.75 97.26 196.75 97.29 196.75 97.3 196.75 97.34 196.75 97.35 196.75 97.38 196.75 97.39 196.75 97.42 196.74 97.44 196.74 97.46 196.74 97.48 196.74 97.51 196.74 97.52 196.74 97.55 196.73 97.57 196.73 97.59 196.73 97.61 196.73 97.64 196.72 97.65 196.72 97.68 196.72 97.69 196.72 97.73 196.72 97.74 196.72 97.77 196.71 97.78 196.71 97.81 196.71 97.83 196.71 97.86 196.71 97.87 196.71 97.9 196.7 97.91 196.7 97.94 196.7 97.96 196.7 97.99 196.7 98 196.7 98.03 196.69 98.04 196.69 98.08 196.69 98.09 196.69 98.12 196.69 98.13 196.69 98.16 196.68 98.17 196.68 98.21 196.68 98.22 196.68 98.25 196.68 98.26 196.68 98.29 196.67 98.31 196.67 98.33 196.67 98.35 196.67 98.38 196.66 98.39 196.66 98.42 196.66 98.44 196.66 98.47 196.66 98.48 196.66 98.51 196.66 98.52 196.66 98.55 196.65 98.56 196.65 98.6 196.65 98.61 196.65 98.64 196.64 98.66 196.64 98.68 196.64 98.7 196.64 98.73 196.64 98.74 196.64 98.77 196.63 98.78 196.63 98.81 196.63 98.83 196.63 98.86 196.63 98.87 196.63 98.9 196.62 98.92 196.62 98.95 196.62 98.96 196.62 98.99 196.62 99 196.62 99.03 196.61 99.05 196.61 99.08 196.61 99.09 196.61 99.12 196.61 99.13 196.61 99.16 196.6 99.18 196.6 99.21 196.6 99.22 196.6 99.25 196.6 99.26 196.6 99.3 196.59 99.31 196.59 99.34 196.59 99.35 196.59 99.38 196.59 99.4 196.59 99.43 196.58 99.44 196.58 99.47 196.58 99.48 196.58 99.51 196.57 99.53 196.57 99.56 196.57 99.57 196.57 99.6 196.57 99.61 196.57 99.64 196.56 99.66 196.56 99.69 196.56 99.7 196.56 99.73 196.56 99.75 196.56 99.77 196.56 99.79 196.56 99.82 196.55 99.83 196.55 99.86 196.55 99.88 196.55 99.91 196.54 99.92 196.54 99.95 196.54 99.96 196.54 99.99 196.54 100.01 196.54 100.04 196.53 100.05 196.53 100.08 196.53 100.09 196.53 100.12 196.53 100.14 196.53 100.17 196.52 100.18 196.52 100.21 196.52 100.22 196.52 100.25 196.52 100.27 196.52 100.3 196.51 100.31 196.51 100.34 196.51 100.35 196.51 100.39 196.51 100.4 196.51 100.43 196.5 100.44 196.5 100.47 196.5 100.49 196.5 100.52 196.5 100.53 196.5 100.56 196.49 100.57 196.49 100.6 196.49 100.62 196.49 100.64 196.49 100.66 196.49 100.69 196.48 100.7 196.48 100.73 196.48 100.75 196.48 100.78 196.47 100.79 196.47 100.82 196.47 100.83 196.47 100.86 196.47 100.88 196.47 100.91 196.47 100.92 196.47 101 196.47 101.03 196.49 101.07 196.5 101.07 196.51 101.08 196.53 101.09 196.58 101.1 196.65 101.09 196.72 101.07 196.81 101.03 198.46 100.08 198.48 100.06 198.49 100.04 198.5 100.01 198.5 99.95 198.5 99.93 198.5 99.92 198.48 99.87 198.48 99.86 198.47 99.85 198.46 99.85 198.45 99.84 198.41 99.82 198.36 99.81 198.32 99.81 198.17 99.78 198.09 99.78 198.08 99.77 198.06 99.76 198.07 99.7 198.07 99.69 198.07 99.66 198.07 99.64 198.07 99.61 198.08 99.6 198.08 99.56 198.08 99.55 198.08 99.52 198.08 99.5 198.08 99.47 198.09 99.46 198.09 99.42 198.09 99.41 198.09 99.38 198.09 99.36 198.09 99.33 198.1 99.32 198.1 99.28 198.1 99.27 198.1 99.24 198.1 99.23 198.1 99.19 198.11 99.18 198.11 99.15 198.11 99.14 198.11 99.1 198.12 99.09 198.12 99.06 198.12 99.04 198.12 99.01 198.12 99 198.12 98.96 198.13 98.95 198.13 98.92 198.13 98.91 198.13 98.87 198.13 98.86 198.13 98.83 198.14 98.81 198.14 98.78 198.14 98.77 198.14 98.74 198.14 98.72 198.14 98.69 198.15 98.67 198.15 98.64 198.15 98.63 198.15 98.6 198.15 98.58 198.15 98.55 198.16 98.53 198.16 98.5 198.16 98.49 198.16 98.46 198.16 98.45 198.16 98.41 198.17 98.4 198.17 98.36 198.17 98.35 198.17 98.32 198.17 98.31 198.17 98.28 198.18 98.26 198.18 98.23 198.18 98.21 198.18 98.18 198.18 98.17 198.18 98.14 198.19 98.12 198.19 98.09 198.19 98.08 198.19 98.04 198.19 98.03 198.19 98 198.2 97.98 198.2 97.95 198.2 97.94 198.2 97.91 198.21 97.89 198.21 97.86 198.21 97.85 198.21 97.81 198.21 97.8 198.21 97.77 198.21 97.75 198.21 97.72 198.22 97.71 198.22 97.68 198.22 97.66 198.22 97.63 198.22 97.61 198.22 97.58 198.23 97.57 198.23 97.54 198.23 97.52 198.23 97.49 198.24 97.48 198.24 97.45 198.24 97.43 198.24 97.4 198.24 97.39 198.24 97.35 198.25 97.34 198.25 97.31 198.25 97.29 198.25 97.26 198.25 97.25 198.25 97.21 198.26 97.2 198.26 97.17 198.26 97.16 198.26 97.13 198.26 97.11 198.26 97.08 198.27 97.06 198.27 97.03 198.27 97.02 198.27 96.98 198.27 96.97 198.27 96.94 198.28 96.93 198.28 96.89 198.28 96.88 198.28 96.85 198.28 96.83 198.28 96.8 198.29 96.79 198.29 96.75 198.29 96.74 198.29 96.71 198.29 96.69 198.29 96.66 198.3 96.65 198.3 96.61 198.3 96.6 198.3 96.57 198.31 96.56 198.31 96.53 198.31 96.51 198.31 96.48 198.31 96.46 198.31 96.43 198.31 96.42 198.31 96.39 198.32 96.37 198.32 96.34 198.32 96.33 198.32 96.3 198.32 96.28 198.32 96.25 198.33 96.23 198.33 96.2 198.33 96.19 198.33 96.16 198.34 96.14 198.34 96.11 198.34 96.1 198.34 96.06 198.34 96.05 198.34 96.02 198.35 96 198.35 95.97 198.35 95.96 198.35 95.93 198.35 95.91 198.35 95.88 198.36 95.86 198.36 95.83 198.36 95.82 198.36 95.79 198.36 95.78 198.36 95.74 198.37 95.73 198.37 95.7 198.37 95.68 198.37 95.65 198.37 95.64 198.37 95.61 198.38 95.59 198.38 95.56 198.38 95.54 198.38 95.51 198.38 95.5 198.38 95.47 198.39 95.45 198.39 95.42 198.39 95.4 198.39 95.37 198.4 95.36 198.4 95.33 198.4 95.31 198.4 95.28 198.4 95.27 198.4 95.24 198.41 95.22 198.41 95.19 198.41 95.18 198.41 95.14 198.41 95.13 198.41 95.1 198.42 95.08 198.42 95.05 198.42 95.04 198.42 95 198.42 94.99 198.42 94.96 198.43 94.94 198.43 94.91 198.43 94.9 198.43 94.87 198.43 94.85 198.43 94.82 198.44 94.81 198.44 94.78 198.44 94.76 198.44 94.73 198.44 94.72 198.44 94.68 198.45 94.67 198.45 94.64 198.45 94.62 198.45 94.59 198.45 94.58 198.45 94.54 198.46 94.53 198.46 94.5 198.46 94.48 198.46 94.45 198.46 94.44 198.46 94.41 198.47 94.39 198.47 94.36 198.47 94.35 198.47 94.32 198.47 94.3 198.47 94.27 198.48 94.25 198.48 94.19 198.48 94.17 198.48 94.11 198.49 94.09 198.49 94.02 198.49 94.01 198.49 93.92 198.49 93.9 198.49 93.71 198.49 93.7 198.49 93.67 198.49 93.65 198.49 93.61 198.47 93.48 198.43 93.35 198.39 93.23 198.31 93.06 198.3 93.05 198.29 93.03 198.28 93.02 198.28 93 198.26 92.99 198.26 92.97 198.25 92.96 198.24 92.94 198.16 92.81 198.15 92.79 198.14 92.78 198.1 92.72 198.09 92.71 198.07 92.67 197.95 92.52 197.94 92.51 197.93 92.49 197.92 92.48 197.91 92.47 197.9 92.46 197.88 92.44 197.88 92.43 197.86 92.42 197.86 92.41 197.84 92.39 197.84 92.38 197.74 92.29 197.72 92.27 197.6 92.16 197.59 92.15 197.51 92.09 197.5 92.08 197.42 92.03 197.34 91.99 197.24 91.94 197.14 91.92 197.12 91.92 197.1 91.91 197.06 91.91 197.05 91.91 196.98 91.91 196.96 91.91 196.94 91.91 196.91 91.91 196.83 91.93 196.77 91.96 196.69 92 196.64 92.04 196.63 92.05 196.58 92.09 196.5 92.16 196.5 92.17 196.4 92.27 196.39 92.29 196.28 92.39 196.28 92.4 196.22 92.45 196.22 92.46 196.17 92.51 196.16 92.52 196.13 92.56 196.12 92.57 196.07 92.61 196.06 92.63 196.02 92.67 196.02 92.68 195.97 92.72 195.96 92.73 195.92 92.77 195.92 92.78 195.87 92.83 195.87 92.84 195.82 92.88 195.82 92.89 195.77 92.93 195.76 92.95 195.72 92.99 195.71 93 195.66 93.05 195.65 93.06 195.55 93.17 195.54 93.18 195.44 93.28 195.43 93.3 195.33 93.39 195.32 93.41 195.28 93.42 195.25 93.43 195.22 93.43 195.18 93.42 195.15 93.39 195.13 93.35 194.85 92.66 194.78 92.51 194.74 92.44 194.73 92.43 194.72 92.4 194.7 92.39 194.7 92.38 194.68 92.36 194.67 92.35 194.66 92.34 194.64 92.32 194.58 92.27 194.56 92.27 194.55 92.26 194.51 92.24 194.45 92.22 194.37 92.21 194.31 92.21 194.22 92.22 194.14 92.24 194.07 92.27 193.02 92.76 192.58 92.96 192.49 93.01 192.43 93.06 192.38 93.1 192.36 93.12 192.35 93.14 192.34 93.16 192.33 93.19 192.33 93.24 192.34 93.29 192.36 93.32 192.4 93.36 192.44 93.39 192.49 93.41 192.53 93.41 192.59 93.41 192.61 93.42 192.71 93.42 192.73 93.41 192.82 93.41 192.83 93.41 192.93 93.41 192.94 93.41 192.97 93.41 193.03 93.41 193.04 93.41 193.06 93.41 193.13 93.42 193.2 93.45 193.27 93.48 193.34 93.54 193.39 93.59 193.41 93.61 193.43 93.65 193.44 93.66 193.46 93.69 193.49 93.74 193.53 93.83 193.57 93.94 193.59 94.06 193.59 94.11 193.59 94.12 193.59 94.17 193.6 94.18 193.6 95.09 193.6 95.1 193.6 96.1 193.6 96.11 193.6 97.11 193.61 97.12 193.61 98.11 193.61 98.13 193.61 99.12 193.62 99.13 193.62 100.13 193.62 100.14 193.62 101.03 193.62 101.04 193.62 101.06 193.63 101.09 193.64 101.1 193.65 101.12 193.66 101.13 193.68 101.14 193.7 101.15 193.74 101.16 193.79 101.16 193.81 101.16 193.87 101.13 193.93 101.1 193.95 101.09 193.99 101.06 194.05 101.02 194.09 101 194.15 100.95 194.19 100.93 194.25 100.89 194.29 100.87 194.35 100.82 194.39 100.8 194.45 100.76 194.49 100.74 194.55 100.69 194.59 100.67 194.65 100.63 194.69 100.61 194.75 100.56 194.79 100.54 194.83 100.51 194.9 100.47 194.99 100.4 195 100.4 195.05 100.36 195.08 100.33 195.1 100.29 195.12 100.27 195.13 100.22 195.13 94.94 195.13 94.93 195.13 94.88 195.13 94.86 195.13 94.82 195.14 94.8 195.14 94.79 195.14 94.77 195.14 94.75 195.15 94.74 195.15 94.72 195.15 94.68 195.15 94.67 195.18 94.5 195.2 94.4 195.22 94.35 195.26 94.25 195.33 94.12 195.41 94 195.48 93.9"/><path class="cls-11" d="M172,100.77l.21-.13.36-.21-.07-.1v0l-.16-.21h0l0,0h0l0,0h0v0l0,0,0-.06,0,0,0,0v0l-.06-.14,0,0-.06-.14,0-.15-.6-2.7-.94-4.27,0-.2V92.1h0l0,0h-2.4l-.24.3h0l-.08.12h0l0,.07h0l-.05.06h0l-.05.06h0l-.73,1v0h2.23l0,0,0,0,.05,0,0,0h0l0,0,0,0,0,.11.09.37,0,.15.16.68,0,.11v0h0v0h0v.13l0,0,0,0,0,0h0l-.09,0,0,0,0,0-.09,0,0,0-.08,0,0,0-.08,0,0,0-.09,0,0,0-.08,0h0l-.08,0h0l-.08,0,0,0-.09,0h0l-.08,0,0,0-.05,0-.15.09-.17.11-.23.14-.22.15h0l-.09.07h0l-.1.07v0h0L167,97l-.13.13h0l0,0h0v0l0,0v0l-.06.08v0l0,0v0l0,0,0,0v0l0,.09,0,.11,0,.11,0,.16V98h0v0h0v.09h0v.2h0v0h0v.05h0v0h0v.08l0,.16,0,.13,0,.13.06.16.05.12.08.18.08.14.1.15h0l0,0h0v0l.07.08h0l.07.09h0v0l.1.1.13.13h0l0,0h0l0,0h0l.12.1h0l.09.07h0l.14.1.16.1h.06l0,0,.09,0,0,0,.09,0,0,0,.08,0,.05,0,.16,0,.16,0,.18,0h.54l.08,0,.08,0,.08,0,0,0h0l.06,0,.1-.1.08-.1h0l0-.05h0l0,0h0l0,0h0l0,0h0l0-.05h0l0,0,0-.06h0l0,0,0,0,0,0h.08l0,0h0l.1.14v0l.15.19v0l.09.12h0l.14.19h0l0,0h0l0,0h.2l.07,0,.26-.14Zm-1.79-1.57v0l0,.1,0,.08-.06.13,0,0v0l0,0,0,0-.09.14h0l0,0h0l0,0h0l0,0h0l0,0h0l0,0-.05,0,0,0h0l0,0h-.07l-.08,0-.05,0,0,0h0l-.07,0h0l-.17-.15h0l-.19-.18,0,0-.13-.14h0l0,0h0l0,0h0l0,0h0v0h0l-.13-.16-.12-.19v0l0,0h0v-.08h0l-.1-.22-.06-.19-.06-.21,0-.19v0h0v0h0v-.26l0-.15,0-.12,0-.11.07-.11.07-.09,0,0h0l.06-.07h0l0,0h0l0,0h0l.09-.07,0,0,.08,0,.15-.08,0,0,0,0,.3-.13.23-.09h.17l0,0,0,0,0,0h0l0,0v.06l.28,1.26.12.56.1.53v.19Z"/><path class="cls-11" d="M201,101.14h.2l.09,0,.23-.07,1.06-.38.43-.16.08,0,.15-.07.11-.06.1-.06.07,0h0l.06,0,.06-.06h0l0,0,0,0h0l.05-.08,0-.07,0-.08,0-.1,0-.1,0-.15V98.08h0v-.71h0v-.71h0v-.71h0V95.2h0v-.71h0v-.11h0V94l0-.19,0-.06,0-.06,0-.07-.09-.21v-.06h0l0,0v0h0v0h0v0l0,0v-.08l0,0-.11-.15v0l-.11-.13,0,0h0l0,0v0l0,0h0l0,0h0l-.15-.15,0,0h0l-.08-.08h0l0,0h0l0,0h0l0,0h0l-.16-.14h0l-.32-.27h0l-.37-.27h0l-.26-.18h0l-.07,0h0l-.16-.13h0l-.23-.18h0l-.15-.12-.12-.12-.11-.11h0l0,0h0l-.05-.06h0v0h0l0,0h0l0-.08,0,0v0l0,0,0-.06,0,0,.08-.09h0l0,0,0-.05v0l0-.06,0,0,0,0h0l0,0-.06,0h-.12l-.15.07-.26.12,0,0,0,0,0,0,0,0h0l-.05,0,0,0,0,0,0,0h0l0,0h0l0,0h0l0,0h-.07l0,0h0l0,0h0l0,0h0l-.11.06h0l-.12.06,0,0-.07,0-.08,0,0,0,0,0h0l0,0v.12l0,0,0,0,0,0h0l.23.26.18.19.13.14.11.11h0l0,0,.12.12h0l.13.11h0l.13.11h0l.08.07h0l.19.15h0l.33.26h0l.37.29h0l.27.22h.1v0h.07v0h0l.24.22.07.07.05.06h0l.05.07,0,.06v.14h0l0,.05,0,0,0,0-.16.11h0v0h0l0,0,0,0-.5.29-.1.06,0,0-.17.11-.08,0h0l-.05,0h0l-.14.12-.13.12v0h0v0h0v0l0,0h0l-.07.09,0,0,0,0-.08.14-.05.1-.07.14-.08.18-.06.17-.08.29-.07.27-.07.32,0,.27,0,.18v.51h0v.43h0v.09h0v.09h0v.09h0v.13l0,.22v.12l0,.16,0,.2.14.44.06.17.07.15v.06h0l.07.13.08.12.05.07h0l.07.08.06.07.06.06h0l0,0,0,0h0l.09.06.09.06.06,0,0,0,.1,0,.14,0H201Zm0-1.91v-.34h0v0h0v0h0v-.12h0v-.07h0v-.15h0v-.09h0v-.2h0v-.47h0v0h0v0h0v0h0v-.06h0v0h0v0h0v-.19l0-.21v0l0-.26v-.07l0-.1v0l.09-.49.11-.47,0-.13,0-.08.06-.14,0-.06.07-.13.08-.12h0v0h0l.06,0,0,0,0,0,.05,0,.09,0,.08,0h.09l0,0,0,0,0,0,0,0,0,0v.06l0,.09v.16h0v1.26h0V97h0v.63h0v.63h0v1.1h0v.13h0v0h0v0l0,.14,0,.1,0,.09,0,.06h0l0,0h0l0,0,0,0h0l0,0h0l-.09,0-.09,0h-.15l-.08,0-.1,0-.06,0-.06,0-.05,0-.08-.1-.08-.12-.06-.12,0-.12,0-.13,0-.19Z"/><polygon class="cls-11" points="186.79 100.21 186.81 100.19 186.82 100.19 186.83 100.16 186.83 100.12 186.82 100.08 186.79 100.05 186.77 100.03 186.73 100.02 186.53 99.98 186.51 99.98 186.49 99.98 186.48 99.98 186.46 99.98 186.39 99.97 186.36 99.96 186.34 99.94 186.33 99.92 186.31 99.87 186.29 99.79 186.29 99.7 186.3 99.69 186.3 99.67 186.3 99.65 186.3 99.63 186.3 99.61 186.3 99.59 186.31 99.57 186.31 99.55 186.31 99.53 186.31 99.51 186.31 99.5 186.31 99.47 186.32 99.46 186.32 99.43 186.32 99.42 186.32 99.39 186.32 99.38 186.32 99.35 186.33 99.34 186.33 99.32 186.33 99.3 186.33 99.27 186.34 99.26 186.34 99.24 186.34 99.22 186.34 99.2 186.34 99.19 186.34 99.16 186.34 99.15 186.34 99.12 186.35 99.11 186.35 99.08 186.35 99.07 186.35 99.04 186.35 99.03 186.35 99 186.36 98.99 186.36 98.96 186.36 98.95 186.36 98.93 186.37 98.91 186.37 98.89 186.37 98.87 186.37 98.85 186.37 98.83 186.37 98.81 186.38 98.79 186.38 98.77 186.38 98.76 186.38 98.73 186.38 98.72 186.38 98.69 186.39 98.68 186.39 98.65 186.39 98.64 186.39 98.61 186.39 98.6 186.39 98.58 186.4 98.56 186.4 98.53 186.4 98.52 186.4 98.5 186.41 98.48 186.41 98.46 186.41 98.45 186.41 98.42 186.41 98.41 186.41 98.38 186.41 98.36 186.41 98.34 186.42 98.33 186.42 98.3 186.42 98.29 186.42 98.27 186.43 98.25 186.43 98.22 186.43 98.21 186.43 98.19 186.43 98.17 186.43 98.15 186.43 98.13 186.43 98.11 186.44 98.09 186.44 98.07 186.44 98.06 186.44 98.03 186.45 98.02 186.45 97.99 186.45 97.98 186.45 97.95 186.45 97.94 186.45 97.91 186.46 97.9 186.46 97.87 186.46 97.86 186.46 97.84 186.46 97.82 186.46 97.8 186.47 97.78 186.47 97.76 186.47 97.74 186.47 97.72 186.47 97.7 186.47 97.68 186.48 97.67 186.48 97.64 186.48 97.63 186.48 97.6 186.48 97.59 186.48 97.56 186.49 97.55 186.49 97.52 186.49 97.51 186.49 97.48 186.49 97.47 186.49 97.45 186.5 97.43 186.5 97.41 186.5 97.39 186.5 97.37 186.5 97.35 186.5 97.33 186.51 97.31 186.51 97.29 186.51 97.28 186.51 97.25 186.51 97.24 186.51 97.21 186.52 97.2 186.52 97.17 186.52 97.16 186.52 97.14 186.53 97.12 186.53 97.1 186.53 97.08 186.53 97.06 186.53 97.04 186.53 97.02 186.53 97 186.53 96.98 186.54 96.96 186.54 96.94 186.54 96.93 186.54 96.9 186.55 96.89 186.55 96.86 186.55 96.85 186.55 96.82 186.55 96.81 186.55 96.78 186.56 96.77 186.56 96.74 186.56 96.73 186.56 96.7 186.56 96.69 186.56 96.67 186.56 96.65 186.56 96.63 186.57 96.61 186.57 96.59 186.57 96.58 186.57 96.55 186.58 96.53 186.58 96.51 186.58 96.5 186.58 96.47 186.58 96.46 186.58 96.43 186.59 96.42 186.59 96.39 186.59 96.38 186.59 96.36 186.59 96.34 186.59 96.31 186.6 96.3 186.6 96.28 186.6 96.26 186.6 96.24 186.6 96.22 186.6 96.2 186.61 96.19 186.61 96.16 186.61 96.14 186.61 96.12 186.62 96.11 186.62 96.08 186.62 96.07 186.62 96.05 186.62 96.03 186.62 96 186.63 95.99 186.63 95.97 186.63 95.95 186.63 95.93 186.63 95.91 186.63 95.89 186.63 95.88 186.63 95.85 186.64 95.83 186.64 95.81 186.64 95.8 186.64 95.77 186.65 95.76 186.65 95.73 186.65 95.72 186.65 95.69 186.65 95.68 186.65 95.65 186.66 95.64 186.66 95.62 186.66 95.6 186.66 95.58 186.66 95.56 186.66 95.53 186.67 95.52 186.67 95.5 186.67 95.48 186.67 95.46 186.67 95.45 186.67 95.42 186.68 95.4 186.68 95.38 186.68 95.37 186.68 95.34 186.68 95.33 186.68 95.3 186.69 95.29 186.69 95.26 186.69 95.25 186.69 95.22 186.69 95.21 186.69 95.19 186.7 95.17 186.7 95.15 186.7 95.14 186.7 95.11 186.71 95.09 186.71 95.07 186.71 95.06 186.71 95.03 186.71 95.02 186.71 94.99 186.72 94.98 186.72 94.95 186.72 94.94 186.72 94.91 186.72 94.9 186.72 94.88 186.73 94.86 186.73 94.83 186.73 94.82 186.73 94.8 186.73 94.78 186.73 94.76 186.74 94.74 186.74 94.72 186.74 94.71 186.74 94.68 186.74 94.67 186.74 94.64 186.75 94.63 186.75 94.6 186.75 94.59 186.75 94.56 186.75 94.55 186.75 94.52 186.76 94.51 186.76 94.48 186.76 94.47 186.76 94.45 186.76 94.43 186.76 94.41 186.77 94.39 186.77 94.37 186.77 94.35 186.77 94.33 186.77 94.32 186.77 94.29 186.78 94.28 186.78 94.25 186.78 94.24 186.78 94.21 186.78 94.2 186.78 94.12 186.78 94.1 186.78 94.03 186.78 94.01 186.78 93.99 186.77 93.97 186.77 93.95 186.77 93.94 186.77 93.92 186.77 93.91 186.77 93.88 186.75 93.8 186.75 93.78 186.71 93.6 186.66 93.42 186.66 93.41 186.62 93.32 186.57 93.19 186.5 93.04 186.42 92.9 186.34 92.77 186.33 92.77 186.31 92.75 186.24 92.64 186.23 92.63 186.12 92.51 186 92.38 185.99 92.38 185.97 92.36 185.96 92.35 185.94 92.34 185.93 92.33 185.92 92.31 185.9 92.31 185.89 92.29 185.79 92.21 185.78 92.2 185.67 92.13 185.65 92.12 185.63 92.1 185.59 92.08 185.57 92.07 185.49 92.03 185.4 92.01 185.38 92.01 185.34 92 185.25 92 185.24 92 185.21 92 185.19 92.01 185.17 92.01 185.06 92.03 184.95 92.08 184.85 92.14 184.77 92.2 184.76 92.21 184.75 92.22 184.74 92.23 184.72 92.24 184.71 92.25 184.69 92.26 184.68 92.28 184.67 92.28 184.65 92.3 184.64 92.31 184.62 92.32 184.61 92.33 184.6 92.35 184.58 92.36 184.57 92.37 184.56 92.38 184.54 92.4 184.53 92.41 184.51 92.42 184.5 92.43 184.49 92.44 184.47 92.45 184.46 92.47 184.44 92.48 184.43 92.49 184.42 92.5 184.4 92.52 184.39 92.53 184.38 92.54 184.36 92.55 184.35 92.57 184.33 92.57 184.32 92.59 184.31 92.6 184.29 92.62 184.28 92.62 184.26 92.64 184.25 92.65 184.24 92.66 184.22 92.67 184.21 92.69 184.2 92.69 184.18 92.71 184.17 92.72 184.15 92.74 184.14 92.75 184.13 92.76 184.11 92.77 184.1 92.78 184.09 92.79 184.07 92.81 184.06 92.82 184.04 92.83 184.03 92.84 184.02 92.86 184 92.87 183.99 92.88 183.97 92.89 183.96 92.91 183.95 92.92 183.93 92.93 183.92 92.94 183.9 92.95 183.89 92.96 183.88 92.98 183.86 92.99 183.85 93 183.84 93.01 183.82 93.03 183.81 93.03 183.79 93.05 183.78 93.06 183.77 93.08 183.75 93.08 183.74 93.1 183.72 93.11 183.71 93.12 183.7 93.13 183.68 93.15 183.67 93.16 183.66 93.17 183.64 93.18 183.63 93.19 183.62 93.2 183.6 93.22 183.59 93.23 183.57 93.24 183.56 93.25 183.55 93.27 183.53 93.28 183.41 93.13 183.4 93.12 183.37 93.08 183.36 93.07 183.3 92.99 183.29 92.98 183.1 92.72 183.09 92.7 183.06 92.66 183.04 92.65 183.04 92.63 182.94 92.52 182.93 92.5 182.92 92.49 182.9 92.47 182.89 92.46 182.86 92.42 182.85 92.41 182.82 92.38 182.81 92.37 182.68 92.25 182.67 92.24 182.63 92.2 182.62 92.19 182.56 92.15 182.49 92.11 182.4 92.08 182.3 92.06 182.24 92.06 182.24 92.06 182.17 92.07 182.07 92.09 181.99 92.11 181.84 92.18 181.79 92.22 181.78 92.22 181.77 92.23 181.76 92.25 181.75 92.25 181.65 92.36 181.63 92.36 181.55 92.45 181.53 92.46 181.44 92.55 181.43 92.56 181.34 92.65 181.33 92.65 181.24 92.75 181.23 92.75 181.02 92.96 181.01 92.97 180.81 93.17 180.79 93.18 180.78 93.2 180.71 93.26 180.7 93.27 180.67 93.28 180.65 93.29 180.62 93.28 180.59 93.24 180.55 93.19 180.53 93.15 180.52 93.12 180.42 92.93 180.35 92.79 180.25 92.63 180.18 92.52 180.17 92.51 180.12 92.44 180.12 92.44 180.11 92.42 180.03 92.34 180 92.31 179.94 92.26 179.93 92.25 179.88 92.21 179.85 92.2 179.8 92.19 179.75 92.19 179.69 92.2 179.63 92.23 179.35 92.4 179.22 92.48 179.16 92.51 179.15 92.52 179.12 92.53 179.08 92.55 179.05 92.57 179.01 92.59 178.98 92.61 178.94 92.62 178.91 92.64 178.88 92.66 178.85 92.67 178.03 93.08 178 93.11 177.99 93.12 177.97 93.12 177.96 93.14 177.95 93.15 177.94 93.16 177.93 93.17 177.91 93.19 177.9 93.23 177.9 93.26 177.9 93.27 177.9 93.3 177.9 93.32 177.91 93.35 177.94 93.39 177.97 93.42 178.03 93.43 178.07 93.44 178.08 93.44 178.24 93.44 178.25 93.44 178.29 93.44 178.3 93.45 178.34 93.45 178.44 93.47 178.58 93.51 178.67 93.56 178.75 93.62 178.79 93.67 178.81 93.69 178.86 93.76 178.88 93.8 178.89 93.82 178.93 93.91 178.98 94.1 179.03 94.25 179.04 94.3 179.04 94.32 179.05 94.33 179.05 94.35 179.05 94.37 179.05 101.03 179.06 101.06 179.08 101.09 179.12 101.12 179.16 101.12 179.19 101.12 179.24 101.1 179.35 101.05 180.53 100.34 180.59 100.3 180.59 94.37 180.6 94.3 180.61 94.26 180.65 94.12 180.7 93.99 180.73 93.94 180.76 93.88 180.83 93.8 180.84 93.78 180.93 93.7 180.94 93.69 181.01 93.63 181.03 93.61 181.13 93.54 181.17 93.52 181.19 93.51 181.23 93.49 181.31 93.48 181.38 93.48 181.43 93.49 181.48 93.51 181.55 93.55 181.59 93.58 181.62 93.61 181.63 93.63 181.67 93.68 181.68 93.7 181.7 93.74 181.71 93.76 181.72 93.79 181.77 93.89 181.8 93.99 181.86 94.25 181.87 94.29 181.87 94.3 181.87 94.76 181.87 94.78 181.87 95.74 181.88 95.75 181.88 96.71 181.88 96.73 181.88 97.69 181.88 97.7 181.88 98.67 181.89 98.68 181.89 99.64 181.89 99.66 181.89 100.61 181.89 100.62 181.89 100.97 181.9 101 181.9 101.01 181.91 101.03 181.93 101.05 181.95 101.06 181.99 101.06 182.01 101.05 182.07 101.03 182.08 101.02 182.12 101 182.15 100.98 182.17 100.96 182.19 100.95 182.22 100.93 182.25 100.91 182.28 100.89 182.3 100.88 182.34 100.85 182.36 100.84 182.4 100.82 182.42 100.8 182.46 100.78 182.49 100.75 182.51 100.74 182.53 100.73 182.57 100.71 182.59 100.69 182.62 100.67 182.65 100.65 182.68 100.63 182.71 100.62 182.74 100.59 182.76 100.58 182.8 100.56 182.82 100.54 182.86 100.52 182.89 100.5 182.91 100.48 182.93 100.47 182.97 100.45 182.99 100.43 183.03 100.41 183.05 100.39 183.08 100.37 183.11 100.36 183.14 100.33 183.17 100.32 183.2 100.3 183.22 100.28 183.26 100.26 183.34 100.2 183.38 100.16 183.4 100.13 183.41 100.1 183.41 100.07 183.41 100.06 183.41 99.4 183.42 99.39 183.42 97.75 183.42 97.73 183.42 96.09 183.42 96.08 183.42 94.44 183.43 94.42 183.43 94.36 183.43 94.35 183.43 94.32 183.44 94.24 183.47 94.16 183.5 94.08 183.53 94 183.59 93.9 183.65 93.8 183.72 93.7 183.8 93.61 183.83 93.58 183.85 93.57 183.88 93.54 183.94 93.49 183.95 93.48 184.04 93.41 184.09 93.38 184.12 93.37 184.19 93.33 184.26 93.32 184.33 93.3 184.36 93.3 184.37 93.3 184.45 93.3 184.46 93.3 184.49 93.3 184.5 93.31 184.52 93.31 184.59 93.33 184.67 93.36 184.74 93.4 184.8 93.47 184.84 93.51 184.85 93.53 184.89 93.59 184.91 93.64 184.96 93.74 185 93.84 185.05 94.02 185.09 94.23 185.09 94.26 185.09 94.28 185.1 94.31 185.13 94.48 185.13 94.59 185.12 94.61 185.12 94.63 185.12 94.64 185.12 94.67 185.11 94.68 185.11 94.71 185.11 94.72 185.11 94.75 185.11 94.76 185.11 94.79 185.1 94.8 185.1 94.83 185.1 94.84 185.1 94.86 185.1 94.88 185.1 94.9 185.09 94.92 185.09 94.94 185.09 94.96 185.09 94.98 185.09 95 185.09 95.03 185.08 95.04 185.08 95.06 185.08 95.08 185.08 95.1 185.07 95.12 185.07 95.14 185.07 95.16 185.07 95.18 185.07 95.19 185.07 95.22 185.06 95.24 185.06 95.26 185.06 95.27 185.06 95.3 185.06 95.31 185.06 95.34 185.06 95.35 185.06 95.38 185.05 95.39 185.05 95.42 185.05 95.43 185.05 95.46 185.04 95.47 185.04 95.5 185.04 95.51 185.04 95.53 185.04 95.55 185.04 95.58 185.03 95.59 185.03 95.62 185.03 95.63 185.03 95.66 185.03 95.67 185.03 95.7 185.02 95.71 185.02 95.73 185.02 95.75 185.02 95.78 185.02 95.79 185.02 95.81 185.01 95.83 185.01 95.85 185.01 95.87 185.01 95.89 185.01 95.91 185.01 95.94 185 95.95 185 95.97 185 95.98 185 96.01 185 96.02 185 96.05 184.99 96.06 184.99 96.09 184.99 96.1 184.99 96.13 184.99 96.14 184.99 96.17 184.98 96.18 184.98 96.21 184.98 96.22 184.98 96.25 184.97 96.26 184.97 96.29 184.97 96.3 184.97 96.33 184.97 96.34 184.97 96.37 184.97 96.38 184.97 96.41 184.96 96.42 184.96 96.45 184.96 96.46 184.96 96.48 184.95 96.5 184.95 96.53 184.95 96.54 184.95 96.56 184.95 96.58 184.95 96.61 184.94 96.62 184.94 96.64 184.94 96.66 184.94 96.69 184.94 96.7 184.94 96.72 184.93 96.74 184.93 96.76 184.93 96.78 184.93 96.8 184.93 96.82 184.93 96.84 184.92 96.85 184.92 96.88 184.92 96.9 184.92 96.92 184.92 96.93 184.92 96.96 184.91 96.98 184.91 97 184.91 97.01 184.91 97.04 184.91 97.05 184.91 97.08 184.9 97.09 184.9 97.12 184.9 97.13 184.9 97.16 184.9 97.17 184.9 97.2 184.89 97.21 184.89 97.24 184.89 97.25 184.89 97.28 184.89 97.29 184.89 97.31 184.88 97.33 184.88 97.36 184.88 97.37 184.88 97.39 184.88 97.41 184.88 97.44 184.87 97.45 184.87 97.47 184.87 97.49 184.87 97.52 184.87 97.53 184.87 97.55 184.86 97.57 184.86 97.59 184.86 97.6 184.86 97.63 184.85 97.65 184.85 97.67 184.85 97.68 184.85 97.71 184.85 97.73 184.85 97.75 184.84 97.76 184.84 97.79 184.84 97.81 184.84 97.83 184.84 97.84 184.84 97.87 184.83 97.88 184.83 97.91 184.83 97.92 184.83 97.95 184.83 97.96 184.83 97.99 184.82 98 184.82 98.03 184.82 98.04 184.82 98.07 184.82 98.08 184.82 98.11 184.81 98.12 184.81 98.14 184.81 98.16 184.81 98.19 184.81 98.2 184.81 98.22 184.8 98.24 184.8 98.27 184.8 98.28 184.8 98.3 184.79 98.32 184.79 98.34 184.79 98.36 184.79 98.38 184.79 98.4 184.79 98.42 184.78 98.44 184.78 98.46 184.78 98.48 184.78 98.5 184.78 98.52 184.78 98.54 184.78 98.56 184.78 98.58 184.77 98.59 184.77 98.62 184.77 98.63 184.77 98.66 184.76 98.67 184.76 98.7 184.76 98.71 184.76 98.74 184.76 98.75 184.76 98.78 184.75 98.79 184.75 98.82 184.75 98.83 184.75 98.86 184.75 98.87 184.75 98.89 184.74 98.91 184.74 98.94 184.74 98.95 184.74 98.97 184.74 98.99 184.74 99.02 184.73 99.03 184.73 99.05 184.73 99.07 184.73 99.09 184.73 99.11 184.73 99.13 184.72 99.15 184.72 99.17 184.72 99.19 184.72 99.21 184.72 99.23 184.72 99.25 184.71 99.26 184.71 99.29 184.71 99.31 184.71 99.33 184.71 99.34 184.71 99.37 184.7 99.39 184.7 99.41 184.7 99.42 184.7 99.45 184.69 99.46 184.69 99.49 184.69 99.5 184.69 99.53 184.69 99.54 184.69 99.57 184.69 99.58 184.69 99.61 184.68 99.62 184.68 99.65 184.68 99.66 184.68 99.69 184.68 99.7 184.68 99.72 184.67 99.74 184.67 99.77 184.67 99.78 184.67 99.81 184.66 99.82 184.66 99.85 184.66 99.86 184.66 99.88 184.66 99.9 184.66 99.92 184.65 99.94 184.65 99.96 184.65 99.98 184.65 100 184.65 100.02 184.65 100.04 184.64 100.06 184.64 100.08 184.64 100.09 184.64 100.12 184.64 100.13 184.64 100.16 184.63 100.17 184.63 100.2 184.63 100.21 184.63 100.24 184.63 100.25 184.63 100.28 184.62 100.29 184.62 100.32 184.62 100.33 184.62 100.36 184.62 100.37 184.62 100.4 184.61 100.41 184.61 100.44 184.61 100.45 184.61 100.47 184.6 100.49 184.6 100.52 184.6 100.53 184.6 100.56 184.6 100.57 184.6 100.6 184.59 100.61 184.59 100.64 184.59 100.65 184.59 100.67 184.59 100.69 184.59 100.71 184.59 100.73 184.59 100.75 184.58 100.77 184.58 100.79 184.58 100.81 184.58 100.83 184.57 100.85 184.57 100.87 184.57 100.89 184.57 100.91 184.57 100.92 184.57 100.95 184.56 100.96 184.56 100.99 184.56 101 184.56 101.04 184.57 101.08 184.58 101.11 184.6 101.12 184.62 101.13 184.68 101.13 184.72 101.12 184.78 101.09 186.33 100.43 186.72 100.25 186.79 100.21"/><path class="cls-11" d="M162.66,100.5l.1,0,0,0,0,0,0,0,0,0,0,0V98l0,0,0,0H163l0,0,0,0h0l.33.69.23.48,0,0v.06l0,0h0v0l0,0h0l0,0v0h0v0l.12.22.06.1,0,.06.15.23h0l0,0h0v0h0l0,0h0v0l.12.16.1.12h0v0l.1.11.07.07h0l.05,0h0l0,0h0v0h0v0h0v0l.08.06.1.06h0l0,0,.12,0,.12,0h.22l0,0,.23-.12.15-.1,0,0,.34-.23h0l0,0,0,0,0,0v-.13h0l0,0-.25-.36h0l-.07-.1v0l-.07-.1h0l-.06-.07h0l-.24-.35h0l-.05-.08h0l-.06-.09h0l-.07-.11h0l-.08-.13-.17-.26-.1-.17,0,0v0h0V98.3l0,0L165,98.1l-.1-.2-.08-.21-.09-.24,0-.08V97.3h0V97.2l0,0,0-.05,0,0H165l.1-.08h0l.07-.05h0l.16-.11,0,0,0,0,0,0,0,0,.29-.18,0,0h0l.06,0h0v0H166l0,0h0v0l0,0h0l.06-.09,0-.09,0-.12,0-.13,0-.13,0-.16v0h0v0h0v0h0v-.4h0v-.09l0-.15v-.1l0-.25-.06-.26-.07-.26-.08-.24-.1-.26-.12-.27,0,0,0-.11h0v0l-.08-.14,0-.06h0l-.09-.13h0l-.06-.08h0v0l-.08-.08-.11-.11h0l0,0h0v0l-.07,0h0L165,92l-.1-.06-.09,0-.1,0h-.18l-.06,0-.07,0-.12.08h0l-.05,0h0l0,0h0l-.06,0h0l0,0h0l0,0h0l0,0h0l-.06,0h0l0,0h0l-.05,0h0l0,0h0l-.06,0h0l0,0h0l0,0h0l-.05,0h0l-.05,0h0l-.05,0h0l0,0h0l0,0h0l0,0h0l0,0h0l0,0h0l-.05,0h0l-.06,0-.1-.23-.11-.25v0l0,0-.06-.09h0v0l-.05-.06-.07-.07-.07-.06h0l-.11-.07-.1,0-.07,0h-.23l0,0-.05,0-1.54.93-.07,0,0,0,0,0v.08l0,0,0,0,0,0h.52l.08,0,.06,0,.07,0,.08.06,0,0h0l0,0,0,0v0l0,0,0,.07v.11h0v1h0v2.15h0V97.9h0V101h0l1.23-.45Zm.26-6.32V94.1l0-.08.07-.15,0,0v-.07h0v0l.11-.18,0,0v0l.09-.13h0l.07-.08,0,0,0,0,0,0h.19l.06,0,.06,0,0,0h0l0,0,.07.07.06.07v0h0l0,0,.1.16.08.14h0l.1.21.06.16,0,.17,0,.11v0h0v.05h0v0h0v0h0v0h0v0h0v0h0v.08h0v.43h0v.16h0v.08h0v.06h0v.19h0V96h0v.06h0v0h0v0h0v0h0v0l0,.07,0,.07,0,0,0,0-.06.1h0l0,.07-.09.08,0,0h0l-.06,0-.06,0h-.89l-.08,0-.07,0-.06,0h0l0,0,0,0,0,0v-2.4Z"/></svg>